<svg width="71" height="44.1" xmlns="http://www.w3.org/2000/svg" enable-background="new 0 0 71 44.1">
 <g>
  <title>Layer 1</title>
  <g fill="#fff" id="svg_1">
   <path fill="#ef1515" d="m5.3,19l0,-18.9l-4.3,0l0,33.3l4.3,0l0,-9.4l0,-5z" id="svg_2"/>
   <path fill="#ef1515" d="m20,31.8c0,-1.6 -0.4,-3.4 -1.2,-5c-1.1,-1.6 -1.6,-2.6 -2.4,-3.4c-0.7,-0.7 -1.2,-1.1 -1.6,-1.2l-1.2,-0.7c3.6,-2 5.8,-4.9 6.6,-8.4l0.4,-2l-4.6,0l-0.2,1.5c-0.4,2 -1.5,3.8 -3.4,5c-1.5,1.2 -3.2,1.6 -4.9,2l0,3.8c2,0.2 3.6,1.1 5,2c1.6,1.5 3,3.4 3.2,6l0.2,1.6l4.1,0l0,-1.2z" id="svg_3"/>
   <path fill="#ef1515" d="m41.6,0.1l0,15.1l0,6.4c0,2.4 -0.7,4.2 -2.2,6c-1.6,1.7 -3.4,2.4 -5.5,2.4s-3.8,-0.7 -5.4,-2.2c-1.5,-1.5 -2.2,-3.4 -2.2,-5.4c0,-2.2 0.7,-4.1 2.4,-5.5c1.5,-1.5 3.6,-2.4 5.8,-2.4l0.7,0c0.2,0 0.7,0 1.2,0.2c0.7,0.2 1.5,0.4 2.4,1.1l0,-4.5c-1.1,-0.4 -2,-0.7 -2.6,-0.7c-0.4,-0.2 -1.1,-0.2 -2.2,-0.2c-3.6,0 -6.4,1.1 -8.8,3.2c-2.2,2.2 -3.4,4.9 -3.4,8.4s1.2,6.4 3.4,8.4c2.2,2.2 5,3.2 8.4,3.2c3.2,0 5.5,-0.7 7.4,-2.4l0,2.4l5,0l0,-11.9l0,-6.4l0,-15.2l-4.4,0z" id="svg_4"/>
  </g>
  <path d="m67.1,13.9c-2.4,-2.2 -5.2,-3.4 -8.3,-3.4c-3,0 -6.2,0.6 -8.3,3s-3.5,5.2 -3.5,8.4s1.2,6.1 3.4,8.8c2.6,2.2 5,3.5 8.3,3.5s6,-1.2 8.3,-3.4c2.2,-2.5 3.4,-5.2 3.4,-8.4c0.1,-3.4 -0.9,-6.3 -3.3,-8.5zm-8.4,15.8c-4.2,0 -7.7,-3.4 -7.7,-7.7c0,-4.2 3.4,-7.7 7.7,-7.7c4.2,0 7.7,3.4 7.7,7.7s-3.4,7.7 -7.7,7.7z" fill="#f22b29" id="svg_5"/>
 </g>

</svg>